PathFileType	4	(X/Y/Z)	Patient4_TMGait_0pt5_01_right_10.trc.trc
DataRate	CameraRate	NumFrames	NumMarkers	Units	OrigDataRate	OrigDataStartFrame	OrigNumFrames
76.086956521739	76.086956521739	6	33	mm	76.086956521739	124	       141
Frame#	Time	L.ASIS			Sacral			L.Shoulder			Chest			R.Shoulder			Neck			R.ASIS			R.Thigh.Superior			R.Thigh.Lateral			R.Thigh.Inferior			R.Patella			L.Thigh.Superior			L.Thigh.Lateral			L.Thigh.Inferior			L.Patella			L.Shank.Superior			L.Shank.Lateral			L.Shank.Inferior			R.Shank.Superior			R.Shank.Lateral			R.Shank.Inferior			R.Heel			R.Midfoot.Superior			R.Midfoot.Lateral			R.Toe			L.Heel			L.Midfoot.Lateral			L.Midfoot.Superior			L.Toe			L.Elbow			L.Wrist			R.Elbow			R.Wrist			
		X1	Y1	Z1	X2	Y2	Z2	X3	Y3	Z3	X4	Y4	Z4	X5	Y5	Z5	X6	Y6	Z6	X7	Y7	Z7	X8	Y8	Z8	X9	Y9	Z9	X10	Y10	Z10	X11	Y11	Z11	X12	Y12	Z12	X13	Y13	Z13	X14	Y14	Z14	X15	Y15	Z15	X16	Y16	Z16	X17	Y17	Z17	X18	Y18	Z18	X19	Y19	Z19	X20	Y20	Z20	X21	Y21	Z21	X22	Y22	Z22	X23	Y23	Z23	X24	Y24	Z24	X25	Y25	Z25	X26	Y26	Z26	X27	Y27	Z27	X28	Y28	Z28	X29	Y29	Z29	X30	Y30	Z30	X31	Y31	Z31	X32	Y32	Z32	X33	Y33	Z33	

124	14.436571428571	781.854529487329	951.389058747543	304.974205501463	554.852244755023	994.422334939333	440.802135090697	739.565372543316	1425.807316155613	276.554609250050	823.176668311922	1358.452415712810	449.345090895982	718.683318632703	1430.741658154429	613.966519205484	718.528216613231	1487.321717003261	426.540529312067	770.207571825353	935.135376349887	580.321032056434	839.070983387131	751.710172094756	554.138715794248	776.500074829874	630.965084404554	614.884385195143	866.175100077301	591.433516287139	538.902014150084	888.761299500934	510.632550162549	548.061535761100	779.125796894414	722.908989413653	332.056664722417	662.969994159077	631.650679400656	265.521534860880	715.741744447840	537.817311149076	333.968606472403	697.760833932090	469.908522266462	343.367569614405	663.923576985830	405.078397603965	333.898265923779	561.743291800944	302.302038044337	281.133694720586	595.657749044374	186.800615459773	355.022851918084	879.681175635044	421.547957639033	556.005108939816	831.522017905154	304.114931087881	613.802626490374	904.827926020825	223.426719937103	560.496484044788	816.852530351677	40.865708646518	525.688099810793	979.556696751621	111.870984896893	568.791300767760	899.570494744282	38.715453970043	601.026939356409	1102.925668859418	72.157389535165	596.761069562192	452.413026551308	37.499656709937	398.191815872954	525.684746370294	34.106970163227	316.943529230872	610.079476492269	94.897811398095	342.758877235009	737.885870091405	41.305263867827	313.093169970505	805.223581836079	1098.322592745826	118.448290178556	1056.618052576085	1034.258835480308	122.482593418835	568.041680603139	1118.903641917942	710.911542964716	528.311261656870	862.078985473416	727.861351964160	
125	14.449714285714	783.367634238631	950.365499638909	307.354031752536	556.556044413918	992.744080143731	443.756514617359	739.548870314821	1425.131425550315	280.177961456620	823.760611164144	1357.695223742563	452.682651115928	718.920719894859	1428.953279878811	617.474254971393	718.642072781356	1486.243247973550	430.431214750116	772.686706066100	934.075956082325	582.751114572007	841.933654107002	750.399107106296	555.626797637792	778.505175592090	629.809945489092	615.580507808872	867.837196847133	590.477061739526	539.335146005318	888.872862565014	508.742185588474	547.789489463936	780.929508645511	721.621024629585	333.919030548921	664.412529720954	630.275941429332	267.938013444387	717.411270648178	536.155323799368	336.050246551454	699.309384596073	467.402139828281	345.324100434544	663.861914291461	402.915529161167	335.719391790243	559.468244651802	302.360246023105	282.568834609691	591.057304295006	185.815231423755	355.678288437384	879.435308848113	419.173008691711	555.917669273725	829.894877603314	302.288291180356	613.711495748344	901.471309240821	220.687888300605	559.750369155294	809.803142912362	40.572027621744	525.073117818464	973.851429763374	108.421732958342	567.318506007082	892.448533789905	37.511851111093	600.598328655055	1096.659528650662	66.459907145533	595.726743019522	445.700467544598	37.767096717091	397.996486518876	519.088558805153	34.092305821434	316.923729087901	603.683180355598	94.754633939766	342.789520963642	731.390409516046	41.016709264263	313.005493316300	804.852516613430	1097.192325213609	122.250872386200	1056.293002650573	1033.428558438191	126.791546120566	571.256063795323	1115.321383397630	713.763320180453	534.887576349129	857.724362364964	729.318398538378	
126	14.462857142857	784.828105216195	949.530150428010	309.808699660976	558.277625063610	991.272078081210	446.837183060873	739.544337444313	1424.714366484759	283.909705938109	824.418151603380	1357.146816875052	456.086074824772	719.272174438500	1427.308625805356	621.088088136781	718.845207249467	1485.394088700083	434.472338486235	775.272830428032	933.333709038085	585.238323797228	844.998152946453	749.457321343678	557.022718026032	780.974942966813	629.106054173033	616.426152230944	869.770864809429	589.880849977715	539.721509274593	889.313184649410	507.136987925847	547.599167448275	783.041536691669	720.551920936630	336.008823895988	666.412919778233	628.863167550250	270.577151416382	719.933411230462	534.525359536047	338.322447435751	701.859482198109	464.776861694951	347.321078505659	664.492927182396	400.710731106045	337.635032119644	557.712747184001	302.696710933912	284.101322829758	586.746359952565	185.034559633011	356.313658284925	879.433171799109	417.163542579923	555.923515390659	828.627168702657	300.890745239384	613.946367627839	898.227022150124	218.306310479592	559.143338491383	802.664433340026	40.482891410704	524.717580530860	968.005516444215	105.438324211860	566.074253354352	885.277573812549	36.594314269887	600.382750491116	1090.280548398908	61.418389195463	594.810871999496	439.010506466094	38.648634677765	397.691969203530	512.515776285507	34.369092782512	316.850749856782	597.462340784254	94.686547063009	342.728758927271	724.867202797995	40.630025380655	312.926322216426	804.004875951823	1096.110648073900	126.252205193968	1055.298057959876	1031.705560732454	131.169365634443	575.245471499467	1111.542384683305	716.808271738629	542.871290050869	853.110032997263	730.959552431904	
127	14.476000000000	786.203814887667	948.961356179540	312.340241988977	559.978797056875	990.079202305937	450.035018468016	739.565047381037	1424.607490000515	287.721763432691	825.136043055602	1356.853398513168	459.532142665227	719.754410743590	1425.893749274992	624.799475481531	719.142356005224	1484.825863379995	438.621410272429	777.900757957133	932.944964870752	587.785118113722	848.143986273081	748.918169160480	558.365674446511	783.785316544236	628.851787334612	617.453387830082	871.874576374886	589.632237096657	540.136123208221	890.018123444360	505.857871066450	547.576344890311	785.454261149016	719.781356668274	338.327358131130	669.034420192849	627.462943867725	273.403898485260	723.419338295186	532.998974647739	340.739249389130	705.527859583901	462.108402973462	349.278079943685	665.926650347381	398.543537555604	339.579338657346	556.589463341790	303.425077815611	285.686630094074	582.834531896751	184.588638361164	356.892622352690	879.596011376572	415.561109884166	556.066073742358	827.654995391886	299.939396509132	614.496079908950	895.110617864721	216.348988636319	558.703957219496	795.639531470422	40.549318846687	524.585581481585	962.138450505253	103.033941185199	565.104881268823	878.248098877928	35.965693975902	600.348271827727	1083.930453170330	57.271376478760	594.059550856661	432.410980195527	40.416552213843	397.272535834899	506.003730765580	35.109086382156	316.716390843626	591.503028790116	94.756450250689	342.558310617168	718.303341421788	40.127982615011	312.873257108727	802.655638461414	1095.139530631094	130.442345624315	1053.590220620351	1029.118557674948	135.586233819257	579.992657676891	1107.681393306024	720.011495638234	552.230709721059	848.399889934731	732.797603805165	
128	14.489142857143	787.461906782213	948.727195556324	314.946557991533	561.624108396020	989.223222419037	453.352040138320	739.608725593389	1424.843197382552	291.589496888976	825.894670690295	1356.846446515201	462.995766103749	720.385827242516	1424.782864196914	628.601373824320	719.526412761141	1484.573054728078	442.834986986067	780.510107549815	932.916776283890	590.389819633582	851.236569649670	748.770238458645	559.712041045622	786.746111649676	628.998136216671	618.678259364014	874.009167510143	589.673858919634	540.668228468914	890.863148851240	504.898678293373	547.793102778679	788.167567572840	719.385163130070	340.852612271978	672.346425727246	626.127100117582	276.364295175209	727.983904944831	531.652743669834	343.230000280183	710.426908738448	459.485254691364	351.105343641108	668.293362215099	396.495077549858	341.477383712687	556.236097133866	304.653601837866	287.276665523184	579.460182436017	184.611318069968	357.385391574721	879.785949388660	414.354454409164	556.382324705591	826.812299212388	299.399695917195	615.310973356112	892.052717504650	214.824104799142	558.449287750290	788.821021418147	40.714779297390	524.628959938453	956.291070704868	101.237916281643	564.422691252030	871.440367414827	35.596675218554	600.453736557818	1077.664368042771	54.112660449079	593.494868859885	426.004412072789	43.348844766621	396.749856392007	499.612878214271	36.507658445759	316.522434672413	585.909098210124	95.044157757153	342.271725687551	711.696847271115	39.501973696436	312.864084625487	800.781346033196	1094.338485814152	134.809017567681	1051.113656098368	1025.701252008843	140.015873455872	585.474300365433	1103.852223394241	723.341489476763	562.948411725542	843.764768644196	734.840414662878	
129	14.502285714286	788.566658740779	948.872334065099	317.618872595518	563.181964225182	988.738670888265	456.799173204361	739.652978280719	1425.429132688685	295.494611293737	826.669805289589	1357.136823822256	466.451220283555	721.184940910556	1424.025895964919	632.486735594027	719.977327693071	1484.647442662697	447.075409481192	783.050222979831	933.225404653183	593.041730544649	854.134048532519	748.949197881660	561.135014723733	789.604525836420	629.454159522342	620.104099101768	875.997686972335	589.910131391924	541.412693495841	891.666389875789	504.212984432639	548.301720201908	791.186143408263	719.426042259041	343.538430337047	676.414904207733	624.904912484202	279.386359620473	733.726318047365	530.563490981070	345.704050064741	716.646710763843	457.004031136014	352.713124352427	671.727953834166	394.643305339274	343.253014440104	556.804020489774	306.474017040057	288.825702291949	576.781527143403	185.229540046712	357.775350011373	879.820414170965	413.490565706381	556.903352303674	825.865936037754	299.194674677996	616.317926165643	888.930087596790	213.692500500602	558.388706654288	782.217208350997	40.925206619882	524.795771221813	950.452367929831	100.009575260201	564.011010765616	864.852439951009	35.436042320446	600.655884839550	1071.477178253513	51.907615530990	593.115464508634	419.930832122764	47.698097022169	396.157684454200	493.432158232004	38.769263137972	316.284374506195	580.799633056885	95.644994073636	341.878880979994	705.065805465835	38.755174796100	312.912230310209	798.360301799086	1093.756779652405	139.336093960126	1047.800234873738	1021.491185134817	144.437744728730	591.661801006619	1100.158440650320	726.775936948415	575.022084871808	839.372615492993	737.090279834420	
